<?xml version="1.0" encoding="utf-8"?>
<!-- Generator: Adobe Illustrator 16.0.0, SVG Export Plug-In . SVG Version: 6.00 Build 0)  -->
<!DOCTYPE svg PUBLIC "-//W3C//DTD SVG 1.1//EN" "http://www.w3.org/Graphics/SVG/1.1/DTD/svg11.dtd">
<svg version="1.1" id="important" xmlns="http://www.w3.org/2000/svg" xmlns:xlink="http://www.w3.org/1999/xlink" x="0px" y="0px"
	 width="18px" height="16.943px" viewBox="1 1.529 18 16.943" enable-background="new 1 1.529 18 16.943" xml:space="preserve">
<path fill-rule="evenodd" clip-rule="evenodd" fill="#F03637" d="M18.631,15.802c-2.313-4.385-4.624-8.771-7.012-13.116
	c-0.284-0.518-0.993-0.956-1.589-1.113C9.213,1.356,8.7,1.974,8.321,2.689c-2.297,4.35-4.625,8.684-6.92,13.034
	c-0.895,1.695-0.272,2.721,1.643,2.737c2.305,0.021,4.61,0.005,6.915,0.005c2.345,0,4.688,0.016,7.033-0.006
	C18.838,18.443,19.479,17.41,18.631,15.802z M9.942,16.721c-0.626,0-1.135-0.509-1.135-1.136s0.509-1.135,1.135-1.135
	c0.627,0,1.136,0.508,1.136,1.135S10.569,16.721,9.942,16.721z M11.233,7.451c-0.008,0.195-0.02,0.391-0.03,0.585
	c0.006,0.001,0.011,0.001,0.017,0.002c-0.146,1.593-0.25,3.192-0.468,4.775c-0.046,0.338-0.504,0.619-0.772,0.926
	c-0.259-0.318-0.701-0.615-0.744-0.96c-0.216-1.78-0.324-3.574-0.482-5.362C8.672,6.493,8.85,5.746,9.956,5.674
	C10.87,5.613,11.28,6.209,11.233,7.451z"/>
</svg>
