<?xml version="1.0" encoding="utf-8"?>
<!-- Generator: Adobe Illustrator 16.0.0, SVG Export Plug-In . SVG Version: 6.00 Build 0)  -->
<!DOCTYPE svg PUBLIC "-//W3C//DTD SVG 1.1//EN" "http://www.w3.org/Graphics/SVG/1.1/DTD/svg11.dtd">
<svg version="1.1" id="remember" xmlns="http://www.w3.org/2000/svg" xmlns:xlink="http://www.w3.org/1999/xlink" x="0px" y="0px"
	 width="18px" height="18px" viewBox="1 1 18 18" enable-background="new 1 1 18 18" xml:space="preserve">
<g>
	<g>
		<g>
			<path fill="#FABE2C" d="M9.992,1.002v17.996c4.956-0.017,8.969-4.038,8.969-8.998S14.948,1.019,9.992,1.002z"/>
			<path fill="#FED843" d="M10.008,1.002v17.996C5.052,18.981,1.039,14.96,1.039,10S5.052,1.019,10.008,1.002z"/>
		</g>
		<g>
			<path fill="#D43A2F" d="M7.281,6.096C7.867,6,8.744,5.928,9.715,5.928c1.199,0,2.039,0.18,2.615,0.637
				c0.479,0.383,0.742,0.947,0.742,1.691c0,1.031-0.73,1.738-1.426,1.99v0.035c0.563,0.229,0.875,0.768,1.078,1.512
				c0.252,0.912,0.504,1.967,0.66,2.279h-1.871c-0.131-0.229-0.324-0.889-0.563-1.883c-0.217-1.008-0.564-1.283-1.309-1.297H9.092
				v3.18H7.281V6.096z M9.092,9.574h0.719c0.912,0,1.451-0.455,1.451-1.164c0-0.742-0.504-1.115-1.344-1.127
				c-0.443,0-0.695,0.037-0.826,0.061V9.574z"/>
		</g>
		<path fill="#F44336" d="M9.919,9.56C9.88,9.562,9.851,9.574,9.811,9.574H9.092v-2.23C9.223,7.32,9.475,7.283,9.918,7.283h0.001
			V5.937c-0.07-0.002-0.131-0.009-0.204-0.009C8.744,5.928,7.867,6,7.281,6.096v7.977h1.811v-3.18h0.551
			c0.1,0.002,0.19,0.01,0.276,0.021V9.56z"/>
	</g>
</g>
</svg>
