<?xml version="1.0" encoding="utf-8"?>
<!-- Generator: Adobe Illustrator 16.0.0, SVG Export Plug-In . SVG Version: 6.00 Build 0)  -->
<!DOCTYPE svg PUBLIC "-//W3C//DTD SVG 1.1//EN" "http://www.w3.org/Graphics/SVG/1.1/DTD/svg11.dtd">
<svg version="1.1" id="restriction" xmlns="http://www.w3.org/2000/svg" xmlns:xlink="http://www.w3.org/1999/xlink" x="0px"
	 y="0px" width="18px" height="18px" viewBox="1 1 18 18" enable-background="new 1 1 18 18" xml:space="preserve">
<g>
	<path fill="#90A4AE" d="M10,7.563c-0.415,0-0.75-0.335-0.75-0.75V4.75C9.25,3.51,8.24,2.5,7,2.5S4.75,3.51,4.75,4.75v2.063
		c0,0.415-0.335,0.75-0.75,0.75s-0.75-0.335-0.75-0.75V4.75C3.25,2.683,4.933,1,7,1s3.75,1.683,3.75,3.75v2.063
		C10.75,7.228,10.415,7.563,10,7.563z"/>
	<path fill="#FFC107" d="M11.313,16H2.688C1.758,16,1,15.242,1,14.313V7.938C1,7.008,1.758,6.25,2.688,6.25h8.625
		C12.242,6.25,13,7.008,13,7.938v6.375C13,15.242,12.242,16,11.313,16z"/>
	<path fill="#7D8F97" d="M7,1C4.933,1,3.25,2.683,3.25,4.75v1.5h1.5v-1.5C4.75,3.51,5.76,2.5,7,2.5V1z"/>
	<path fill="#DEA806" d="M7,6.25H4.75h-1.5H2.688C1.758,6.25,1,7.008,1,7.938v6.375C1,15.242,1.758,16,2.688,16H7V6.25z"/>
	<path fill="#F44336" d="M14.125,9.25c-2.688,0-4.875,2.188-4.875,4.875c0,2.688,2.188,4.875,4.875,4.875
		C16.813,19,19,16.813,19,14.125C19,11.438,16.813,9.25,14.125,9.25z M14.125,10.75c0.659,0,1.269,0.197,1.79,0.525l-4.641,4.639
		c-0.327-0.521-0.524-1.13-0.524-1.789C10.75,12.265,12.265,10.75,14.125,10.75z M14.125,17.5c-0.659,0-1.269-0.197-1.79-0.525
		l4.64-4.639c0.328,0.521,0.525,1.13,0.525,1.789C17.5,15.985,15.985,17.5,14.125,17.5z"/>
	<path fill="#D43A2F" d="M14.125,9.25c-2.688,0-4.875,2.188-4.875,4.875c0,2.688,2.188,4.875,4.875,4.875v-1.5
		c-0.659,0-1.269-0.197-1.79-0.525l1.79-1.789v-2.121l-2.851,2.85c-0.327-0.521-0.524-1.13-0.524-1.789
		c0-1.86,1.515-3.375,3.375-3.375V9.25z"/>
</g>
</svg>
