<?xml version="1.0" encoding="utf-8"?>
<!-- Generator: Adobe Illustrator 16.0.0, SVG Export Plug-In . SVG Version: 6.00 Build 0)  -->
<!DOCTYPE svg PUBLIC "-//W3C//DTD SVG 1.1//EN" "http://www.w3.org/Graphics/SVG/1.1/DTD/svg11.dtd">
<svg version="1.1" id="tip" xmlns="http://www.w3.org/2000/svg" xmlns:xlink="http://www.w3.org/1999/xlink" x="0px" y="0px"
	 width="18px" height="18px" viewBox="1 1 18 18" enable-background="new 1 1 18 18" xml:space="preserve">
<image overflow="visible" width="500" height="500" xlink:href="22F69368.jpg"  transform="matrix(1 0 0 1 238.9844 503.9727)">
</image>
<image overflow="visible" width="500" height="500" xlink:href="22F69369.jpg"  transform="matrix(1 0 0 1 946.9492 502.4727)">
</image>
<g>
	<path fill="#F0F7FF" d="M12.813,13.937v2.251L10,16.712l-2.813-0.524v-2.251H12.813z"/>
	<path fill="#DFE7F4" d="M12.813,13.937v2.251L10,16.712v-2.775H12.813z"/>
	<path fill="#90A4AE" d="M12.813,16.188C12.813,17.738,11.551,19,10,19s-2.813-1.262-2.813-2.813H12.813z"/>
	<path fill="#7D8F97" d="M12.813,16.188C12.813,17.738,11.551,19,10,19v-2.813H12.813z"/>
	<path fill="#FED843" d="M16.188,7.187c0,1.992-0.972,3.874-2.6,5.034c-0.493,0.352-0.776,0.867-0.776,1.414v0.302H7.188v-0.374
		c0-0.506-0.271-0.986-0.741-1.317c-1.979-1.39-2.953-3.747-2.541-6.15C4.392,3.269,6.859,0.995,10,1
		C13.439,1.006,16.188,3.781,16.188,7.187z"/>
	<path fill="#FABE2C" d="M16.188,7.187c0,1.992-0.972,3.874-2.6,5.034c-0.493,0.352-0.776,0.867-0.776,1.414v0.302H10V1
		C13.439,1.006,16.188,3.781,16.188,7.187L16.188,7.187z"/>
	<g>
		<path fill="#90A4AE" d="M14.188,13.937c0,0.311-0.252,0.563-0.563,0.563H6.36c-0.311,0-0.563-0.252-0.563-0.563
			s0.252-0.563,0.563-0.563h7.265C13.936,13.374,14.188,13.626,14.188,13.937z"/>
	</g>
	<path fill="#7D8F97" d="M14.188,13.937c0,0.311-0.252,0.563-0.563,0.563H10v-1.125h3.625
		C13.936,13.374,14.188,13.626,14.188,13.937z"/>
	<g>
		<path fill="#F44336" d="M11.853,6.788c0.22-0.22,0.576-0.22,0.796,0c0.219,0.22,0.219,0.576,0,0.796l-2.251,2.25
			C10.288,9.944,10.144,9.999,10,9.999S9.712,9.944,9.603,9.834L8.478,8.709c-0.22-0.22-0.22-0.576,0-0.796
			c0.219-0.22,0.575-0.22,0.795,0L10,8.641L11.853,6.788z"/>
	</g>
	<path fill="#D43A2F" d="M11.853,6.788c0.22-0.22,0.576-0.22,0.796,0c0.219,0.22,0.219,0.576,0,0.796l-2.251,2.25
		C10.288,9.944,10.144,9.999,10,9.999V8.641L11.853,6.788z"/>
</g>
</svg>
